# xmcd CD database file
# Copyright (C) 1997 Ti Kan
# 
# Track frame offsets:
#     182
#     10642
#     20400
#     32725
#     43320
#     53592
#     62195
#     74940
#     85625
#     97022
#     112430
#     124717
#     135705
#     146925
#     158805
#     173547
#     186422
#     199270
#     213047
#     223850
#     236035
#     246637
#     258270
#     266557
# 
# Disc length: 3767 seconds
# 
# Revision: 1
# Processed by: cddbd v1.4b41PL1 Copyright (c) Steve Scherf et al.
# Submitted via: DiscPlay 4.0.3
# 
DISCID=760eb518
DTITLE=Chuck Jackson - Chuck Jackson The Great Recordings Disc A
DYEAR=1900
DGENRE=
TTITLE0=I Don't Want To Cry
TTITLE1=Just Once
TTITLE2=(It Never Happens) In Real Life
TTITLE3=The Same Old Story
TTITLE4=I Wake Up Crying
TTITLE5=Everybody Needs Love
TTITLE6=My Willow Tree
TTITLE7=What'cha Gonna Say
TTITLE8=Angel Of Angels
TTITLE9=Any Day Now (My Wild Beautiful Bird)
TTITLE10=I keep Forgettin'
TTITLE11=Getting Ready For The Heartbreak
TTITLE12=In Between Tears
TTITLE13=Tell Him I'm Not Home
TTITLE14=Blue Monday
TTITLE15=Lonely Am I
TTITLE16=I Will Never Turn My Back On You
TTITLE17=Tears Of Joy
TTITLE18=Any Other Way
TTITLE19=Big New York
TTITLE20=Hand It Over
TTITLE21=Beg Me
TTITLE22=Somebody New
TTITLE23=Stand By Me
EXTD=
EXTT0=
EXTT1=
EXTT2=
EXTT3=
EXTT4=
EXTT5=
EXTT6=
EXTT7=
EXTT8=
EXTT9=
EXTT10=
EXTT11=
EXTT12=
EXTT13=
EXTT14=
EXTT15=
EXTT16=
EXTT17=
EXTT18=
EXTT19=
EXTT20=
EXTT21=
EXTT22=
EXTT23=
PLAYORDER=
